<?xml version="1.0" encoding="utf-8"?>
<!-- Generator: Adobe Illustrator 16.0.0, SVG Export Plug-In . SVG Version: 6.00 Build 0)  -->
<!DOCTYPE svg PUBLIC "-//W3C//DTD SVG 1.1//EN" "http://www.w3.org/Graphics/SVG/1.1/DTD/svg11.dtd">
<svg version="1.1" id="Layer_1" xmlns:sketch="http://www.bohemiancoding.com/sketch/ns"
	 xmlns="http://www.w3.org/2000/svg" xmlns:xlink="http://www.w3.org/1999/xlink" x="0px" y="0px" width="30px" height="30px"
	 viewBox="0 0 30 30" enable-background="new 0 0 30 30" xml:space="preserve">
<title>Shape</title>
<desc>Created with bin/sketchtool.</desc>
<path fill="#47D4D4" d="M15,0.001c8.271,0,15,6.662,15,14.852s-6.729,14.852-15,14.852c-8.271,0-15-6.662-15-14.852
	S6.729,0.001,15,0.001L15,0.001z"/>
<path fill="#FFFFFF" d="M19.11,9.025L15,13.095l-4.11-4.07c-0.49-0.485-1.284-0.485-1.774,0c-0.49,0.485-0.49,1.272,0,1.757
	l4.11,4.07l-4.111,4.069c-0.49,0.486-0.49,1.272,0,1.758c0.491,0.486,1.285,0.485,1.775,0l4.11-4.07l4.11,4.07
	c0.489,0.484,1.284,0.485,1.774,0c0.49-0.486,0.49-1.272,0-1.758l-4.109-4.069l4.109-4.07c0.49-0.484,0.49-1.271,0-1.757
	C20.395,8.54,19.6,8.541,19.11,9.025L19.11,9.025z"/>
</svg>
