<?xml version="1.0" encoding="utf-8"?>
<!-- Generator: Adobe Illustrator 16.0.0, SVG Export Plug-In . SVG Version: 6.00 Build 0)  -->
<!DOCTYPE svg PUBLIC "-//W3C//DTD SVG 1.1//EN" "http://www.w3.org/Graphics/SVG/1.1/DTD/svg11.dtd">
<svg version="1.1" id="Layer_1" xmlns="http://www.w3.org/2000/svg" xmlns:xlink="http://www.w3.org/1999/xlink" x="0px" y="0px"
	 width="408px" height="104px" viewBox="0 0 408 104" enable-background="new 0 0 408 104" xml:space="preserve">
<g>
	
		<image overflow="visible" opacity="0.85" enable-background="new    " width="450" height="135" xlink:href="C03DC3AB.png"  transform="matrix(1 0 0 1 -19.5 -11.5)">
	</image>
	<g>
		<g>
			<g>
				<path fill="#FFFFFF" d="M52.17,93.425c-15.143-0.427-27.504-6.284-35.889-19.196c-4.309-6.639-6.674-14.203-5.284-22.117
					c1.606-9.125,5.955-16.946,13.257-23.064c19.96-16.721,51.806-11.942,64.71,10.582c8.224,14.354,4.541,32.524-8.619,43.651
					C74.069,88.587,62.951,93.828,52.17,93.425z M52.119,77.893c0.036,0.213,0.073,0.422,0.109,0.631
					c3.621-0.785,7.416-1.121,10.832-2.438c14.855-5.721,18.53-24.406,7.297-35.132c-8.749-8.354-25.543-8.247-34.015-1.951
					c-11.222,8.34-12.069,23.783-1.578,33.022C39.71,76.381,45.506,78.363,52.119,77.893z"/>
				<path fill="#FFFFFF" d="M216.874,47.578c-0.001,6.104-0.009,12.207,0.003,18.311c0.012,5.582,2.441,9.32,7.67,11.202
					c3.709,1.333,7.578,1.298,11.234-0.296c5.479-2.385,7.881-6.928,6.916-12.643c-0.791-4.68-5.766-8.768-11.117-9.137
					c-1.301-0.092-2.648-0.01-3.895-0.322c-3.932-0.989-6.256-4.272-5.914-8.108c0.32-3.602,3.6-6.778,7.768-6.804
					c17.063-0.104,30.471,12.375,29.751,27.676c-0.503,10.709-6.497,17.922-15.785,22.6c-14.642,7.375-31.808,1.457-39.389-10.59
					c-2.474-3.932-3.742-8.232-3.749-12.875c-0.021-12.906-0.018-25.812-0.003-38.716c0.006-5.227,3.398-8.789,8.279-8.772
					c4.891,0.017,8.197,3.542,8.224,8.854C216.9,34.498,216.874,41.037,216.874,47.578z"/>
				<path fill="#FFFFFF" d="M399.684,47.594c0,5.843,0,11.685,0,17.527c0,13.089-7.939,23.302-20.621,26.813
					c-12.354,3.418-23.094,0.527-31.576-8.85c-11.348-12.546-7.674-31.217,7.199-39.345c4.557-2.49,9.42-3.608,14.492-3.997
					c4.155-0.319,7.749,1.968,8.946,5.439c1.043,3.028,0.019,6.473-2.955,8.145c-1.735,0.974-3.899,1.439-5.913,1.602
					c-4.49,0.363-8.093,2.152-10.482,5.951c-3.657,5.82-0.901,13.564,5.923,16.074c4.565,1.681,9.26,1.588,13.543-1.239
					c3.446-2.276,5.28-5.446,5.276-9.638c-0.014-12.906-0.017-25.814,0.002-38.72c0.004-3.742,1.896-6.729,5.334-7.882
					c3.215-1.077,6.367-0.498,8.588,2.136c1.145,1.351,2.084,3.329,2.145,5.058C399.82,33.636,399.684,40.616,399.684,47.594z"/>
				<path fill="#FFFFFF" d="M167.333,93.443c-10.644-0.086-18.278-3.262-24.281-9.789c-11.46-12.467-8.005-31.203,7.176-39.802
					c10.884-6.165,26.013-4.792,35.582,3.23c14.159,11.871,12.192,32.43-4.078,41.955C176.786,91.934,171.462,93.723,167.333,93.443
					z M165.51,77.859c0.958,0,1.922,0.068,2.875-0.014c4.661-0.395,8.952-4.025,10.175-8.558c1.203-4.462-0.393-8.771-4.49-11.642
					c-4.247-2.971-8.949-3.393-13.7-1.609c-6.034,2.262-8.775,7.594-7.305,13.549C154.299,74.576,159.272,77.915,165.51,77.859z"/>
				<path fill="#FFFFFF" d="M335.813,73.473c0,4.014,0.035,8.027-0.008,12.039c-0.052,4.323-3.504,7.723-7.849,7.816
					c-4.617,0.1-8.179-2.98-8.306-7.471c-0.207-7.408-0.36-14.82-0.305-22.232c0.022-3.658-1.281-6.393-4.594-7.768
					c-3.623-1.504-7.374-1.244-10.229,1.592c-1.26,1.254-2.1,3.48-2.156,5.297c-0.238,7.408-0.07,14.828-0.115,22.242
					c-0.021,3.82-1.998,6.494-5.689,7.961c-2.789,1.105-6.502,0.166-8.705-2.582c-0.979-1.223-1.879-2.926-1.907-4.428
					c-0.163-8.371-0.513-16.776,0.098-25.105c0.718-9.861,7.794-17.292,17.724-19.927c12.093-3.21,25.203,2.244,29.979,12.762
					c1.188,2.621,1.713,5.661,1.968,8.558c0.33,3.724,0.081,7.494,0.081,11.246C335.805,73.473,335.809,73.473,335.813,73.473z"/>
				<path fill="#FFFFFF" d="M97.961,73.227c0.251-5.119-0.052-10.343,0.87-15.338c2.019-10.919,14.924-19.467,25.888-17.683
					c3.658,0.596,6.341,3.593,6.398,7.151c0.063,3.949-2.164,6.653-6.225,7.487c-0.848,0.176-1.736,0.146-2.596,0.277
					c-5.582,0.835-7.739,3.525-7.667,9.148c0.087,6.793,0.042,13.59,0.002,20.385c-0.021,3.513-1.483,6.094-4.766,7.742
					c-3.028,1.52-5.687,1.045-8.324-0.728c-2.183-1.465-3.323-3.515-3.332-6.151c-0.014-4.094-0.004-8.188-0.004-12.283
					C98.125,73.232,98.043,73.23,97.961,73.227z"/>
				<path fill="#FFFFFF" d="M280.77,66.555c0,6.021,0.022,12.039-0.006,18.062c-0.025,5.046-3.438,8.651-8.152,8.688
					c-4.646,0.037-8.301-3.584-8.326-8.559c-0.073-12.127-0.067-24.254-0.008-36.381c0.027-5.25,3.4-8.354,8.697-8.266
					c5.139,0.089,7.771,2.906,7.791,8.395C280.786,54.514,280.77,60.533,280.77,66.555z"/>
			</g>
		</g>
	</g>
</g>
<g>
	
		<image overflow="visible" opacity="0.85" enable-background="new    " width="88" height="88" xlink:href="C03DC3A9.png"  transform="matrix(1 0 0 1 228.5 -22.5)">
	</image>
	<g>
		<g>
			<g>
				<path fill="#FFFFFF" d="M272.141,7.684c-7.464,0-13.513,6.049-13.513,13.512c0,7.463,6.05,13.512,13.513,13.512
					s13.512-6.049,13.512-13.512C285.652,13.733,279.604,7.684,272.141,7.684z M275.439,21.196c0,1.82-1.479,3.301-3.301,3.301
					c-1.82,0-3.302-1.481-3.302-3.301c0-1.82,1.479-3.301,3.302-3.301c0.497,0,0.967,0.119,1.391,0.317l2.291-4.387l0.443,0.231
					l-2.297,4.394C274.854,19.044,275.439,20.053,275.439,21.196z"/>
				<path fill="#FFFFFF" d="M269.339,21.196c0,1.544,1.257,2.801,2.802,2.801c1.543,0,2.801-1.256,2.801-2.801
					c0-1.545-1.258-2.801-2.801-2.801C270.596,18.395,269.339,19.652,269.339,21.196z"/>
			</g>
		</g>
	</g>
</g>
</svg>
